<svg width="20" height="20" viewBox="0 0 20 20" fill="none" xmlns="http://www.w3.org/2000/svg">
<g opacity="0.8">
<path fill-rule="evenodd" clip-rule="evenodd" d="M2.6625 10.9375C2.6625 10.5095 3.00948 10.1625 3.4375 10.1625H7.8125C8.24052 10.1625 8.5875 10.5095 8.5875 10.9375C8.5875 11.3655 8.24052 11.7125 7.8125 11.7125H4.2125V16.5625C4.2125 16.9905 3.86552 17.3375 3.4375 17.3375C3.00948 17.3375 2.6625 16.9905 2.6625 16.5625V10.9375Z" fill="white"/>
<path fill-rule="evenodd" clip-rule="evenodd" d="M1.4125 16.5625C1.4125 16.1345 1.75948 15.7875 2.1875 15.7875H17.8125C18.2405 15.7875 18.5875 16.1345 18.5875 16.5625C18.5875 16.9905 18.2405 17.3375 17.8125 17.3375H2.1875C1.75948 17.3375 1.4125 16.9905 1.4125 16.5625Z" fill="white"/>
<path fill-rule="evenodd" clip-rule="evenodd" d="M7.0375 7.1875C7.0375 6.75948 7.38448 6.4125 7.8125 6.4125H12.1875C12.6155 6.4125 12.9625 6.75948 12.9625 7.1875C12.9625 7.61552 12.6155 7.9625 12.1875 7.9625H8.5875V16.5625C8.5875 16.9905 8.24052 17.3375 7.8125 17.3375C7.38448 17.3375 7.0375 16.9905 7.0375 16.5625V7.1875Z" fill="white"/>
<path fill-rule="evenodd" clip-rule="evenodd" d="M11.4125 3.4375C11.4125 3.00948 11.7595 2.6625 12.1875 2.6625H16.5625C16.9905 2.6625 17.3375 3.00948 17.3375 3.4375V16.5625C17.3375 16.9905 16.9905 17.3375 16.5625 17.3375H12.1875C11.7595 17.3375 11.4125 16.9905 11.4125 16.5625V3.4375ZM12.9625 4.2125V15.7875H15.7875V4.2125H12.9625Z" fill="white"/>
</g>
</svg>
