<svg width="20" height="20" viewBox="0 0 20 20" fill="none" xmlns="http://www.w3.org/2000/svg">
<g opacity="0.8">
<path fill-rule="evenodd" clip-rule="evenodd" d="M14.6125 15.25V16.7875C14.6141 16.8854 14.5963 16.9826 14.56 17.0736C14.5236 17.1645 14.4696 17.2473 14.4009 17.3171C14.3323 17.3869 14.2504 17.4423 14.1601 17.4802C14.0698 17.518 13.9729 17.5375 13.875 17.5375C13.6761 17.5375 13.4853 17.4585 13.3446 17.3178C13.204 17.1772 13.125 16.9864 13.125 16.7875V15.25C13.125 14.6267 12.8774 14.029 12.4367 13.5883C11.9959 13.1476 11.3982 12.9 10.775 12.9H4.58746C3.96637 12.9033 3.37187 13.1523 2.93386 13.5927C2.49585 14.033 2.24995 14.6289 2.24996 15.25V16.7875C2.24996 16.9864 2.17096 17.1772 2.03031 17.3178C1.88966 17.4585 1.69887 17.5375 1.49995 17.5375C1.30104 17.5375 1.11029 17.4585 0.969635 17.3178C0.828983 17.1772 0.749985 16.9864 0.749985 16.7875V15.25C0.749985 14.2322 1.15428 13.2561 1.87395 12.5365C2.59362 11.8168 3.56969 11.4125 4.58746 11.4125H10.775C11.2794 11.4108 11.7791 11.509 12.2455 11.7012C12.7118 11.8935 13.1355 12.1761 13.4922 12.5328C13.8489 12.8894 14.1314 13.3132 14.3237 13.7795C14.516 14.2458 14.6141 14.7456 14.6125 15.25Z" fill="white"/>
<path fill-rule="evenodd" clip-rule="evenodd" d="M7.64997 2.125C6.89098 2.125 6.14904 2.35007 5.51797 2.77174C4.8869 3.19341 4.39504 3.79275 4.10459 4.49396C3.81414 5.19518 3.73813 5.96674 3.8862 6.71114C4.03427 7.45554 4.39977 8.13933 4.93646 8.67602C5.47314 9.2127 6.15689 9.57821 6.90129 9.72628C7.6457 9.87435 8.4173 9.79834 9.11851 9.50789C9.81972 9.21744 10.4191 8.72558 10.8407 8.0945C11.2624 7.46343 11.4875 6.72149 11.4875 5.96251C11.4842 4.94575 11.0788 3.97158 10.3599 3.25262C9.64089 2.53367 8.66672 2.1283 7.64997 2.125ZM7.64997 8.31251C7.18518 8.31251 6.73084 8.17469 6.34439 7.91647C5.95793 7.65825 5.6567 7.29123 5.47883 6.86182C5.30097 6.43242 5.25445 5.95991 5.34513 5.50406C5.4358 5.0482 5.65963 4.62944 5.98829 4.30079C6.31694 3.97214 6.73566 3.74834 7.19152 3.65767C7.64737 3.56699 8.11988 3.61351 8.54928 3.79137C8.97869 3.96924 9.34571 4.27047 9.60393 4.65693C9.86215 5.04338 9.99997 5.49772 9.99997 5.96251C9.99997 6.58577 9.75236 7.18348 9.31165 7.62419C8.87094 8.0649 8.27323 8.31251 7.64997 8.31251Z" fill="white"/>
<path fill-rule="evenodd" clip-rule="evenodd" d="M19.25 15.25V16.7875C19.2516 16.8854 19.2338 16.9826 19.1975 17.0736C19.1612 17.1645 19.1071 17.2473 19.0384 17.3171C18.9698 17.3869 18.8879 17.4423 18.7976 17.4802C18.7073 17.518 18.6104 17.5375 18.5125 17.5375C18.3136 17.5375 18.1228 17.4585 17.9821 17.3178C17.8415 17.1772 17.7625 16.9864 17.7625 16.7875V15.25C17.7645 14.7285 17.5922 14.2213 17.2728 13.8091C16.9534 13.3969 16.5054 13.1032 16 12.975C15.8078 12.925 15.6434 12.8009 15.5426 12.6298C15.4419 12.4588 15.4131 12.2548 15.4625 12.0625C15.488 11.968 15.5321 11.8796 15.5922 11.8023C15.6523 11.725 15.7272 11.6605 15.8125 11.6125C15.9244 11.5417 16.0552 11.5069 16.1874 11.5125C16.2494 11.5004 16.3131 11.5004 16.375 11.5125C17.2029 11.7247 17.9358 12.2081 18.4569 12.8855C18.978 13.5629 19.2572 14.3954 19.25 15.25Z" fill="white"/>
<path fill-rule="evenodd" clip-rule="evenodd" d="M16.1625 5.975C16.1696 6.83288 15.889 7.66838 15.3656 8.34813C14.8422 9.02787 14.1062 9.51265 13.275 9.725C13.1809 9.75027 13.0828 9.75664 12.9862 9.74377C12.8897 9.7309 12.7966 9.69899 12.7124 9.64997C12.5441 9.5455 12.4231 9.37963 12.375 9.18747C12.3497 9.09341 12.3433 8.99529 12.3562 8.89874C12.3691 8.80219 12.4009 8.70916 12.45 8.625C12.5554 8.45759 12.7209 8.33681 12.9124 8.28747C13.4166 8.15697 13.863 7.86272 14.1818 7.45095C14.5005 7.03918 14.6735 6.53323 14.6735 6.0125C14.6735 5.49178 14.5005 4.98579 14.1818 4.57402C13.863 4.16224 13.4166 3.868 12.9124 3.73749C12.7199 3.68279 12.5549 3.55791 12.45 3.38749C12.4003 3.3036 12.368 3.21052 12.3551 3.11387C12.3422 3.01722 12.349 2.91896 12.375 2.82498C12.3983 2.73034 12.4402 2.64126 12.4982 2.56291C12.5562 2.48456 12.6291 2.4185 12.7128 2.36851C12.7965 2.31853 12.8893 2.2856 12.9858 2.2717C13.0823 2.25779 13.1806 2.26317 13.275 2.28749C14.0958 2.49719 14.8242 2.97262 15.3465 3.63965C15.8688 4.30668 16.1557 5.12783 16.1625 5.975Z" fill="white"/>
</g>
</svg>
